<?xml version="1.0" standalone="no"?><!DOCTYPE svg PUBLIC "-//W3C//DTD SVG 1.1//EN" "http://www.w3.org/Graphics/SVG/1.1/DTD/svg11.dtd"><svg t="1553065324360" class="icon" style="" viewBox="0 0 1024 1024" version="1.1" xmlns="http://www.w3.org/2000/svg" p-id="3294" xmlns:xlink="http://www.w3.org/1999/xlink" width="200" height="200"><defs><style type="text/css"></style></defs><path d="M868.352 790.016c-19.968 0-36.352 16.384-36.352 36.864V936.96H193.024v-361.984h4.608c19.968 0 36.352-16.384 36.352-36.864s-16.384-36.864-36.352-36.864h-4.608V429.056h4.608c19.968 0 36.352-16.384 36.352-36.864s-16.384-36.864-36.352-36.864h-4.608V282.624h4.608c19.968 0 36.352-16.384 36.352-36.864s-16.384-36.864-36.352-36.864h-4.608v-122.88h638.976v269.824H370.176c-19.968 0-36.352 16.384-36.352 36.864s16.384 36.864 36.352 36.864h498.688c19.968 0 36.352-16.384 36.352-36.864V82.944c0-38.912-30.208-70.656-67.584-70.656H188.416c-37.376 0-67.584 31.744-67.584 70.656v125.952h-40.96c-19.968 0-36.352 16.384-36.352 36.864s16.384 36.864 36.352 36.864h40.96v72.704h-40.96c-19.968 0-36.352 16.384-36.352 36.864s16.384 36.864 36.352 36.864h40.96V501.76h-40.96c-19.968 0-36.352 16.384-36.352 36.864s16.384 36.864 36.352 36.864h40.96v365.056c0 38.912 30.208 70.656 67.584 70.656h648.704c37.376 0 67.584-31.744 67.584-70.656v-112.64c0-21.504-15.872-37.888-36.352-37.888zM482.304 505.856c-13.824-25.6-40.448-43.52-71.68-43.52-44.544 0-80.896 36.864-80.896 82.432s36.352 82.432 80.896 82.432c33.28 0 61.44-19.968 74.24-49.152h198.144c19.456 0 35.328-15.872 35.328-35.84s-15.872-35.84-35.328-35.84l-200.704-0.512z m-71.68 74.24c-19.456 0-34.816-15.872-34.816-35.328 0-19.456 15.36-35.328 34.816-35.328s34.816 15.872 34.816 35.328c0.512 19.456-15.36 35.328-34.816 35.328z m557.568-72.704c-13.824-14.848-36.864-14.848-51.2-0.512l-207.36 204.8-58.368-61.44c-13.824-14.848-36.864-15.36-51.2-1.024s-14.848 37.376-1.024 52.224l83.456 88.064c6.656 7.168 15.872 11.264 25.6 11.264h0.512c9.216 0 18.432-3.584 25.088-10.24l233.472-230.912c14.848-14.336 15.36-37.376 1.024-52.224z" p-id="3295"></path></svg>