<?xml version="1.0" standalone="no"?><!DOCTYPE svg PUBLIC "-//W3C//DTD SVG 1.1//EN" "http://www.w3.org/Graphics/SVG/1.1/DTD/svg11.dtd"><svg t="1554874885160" class="icon" style="" viewBox="0 0 1024 1024" version="1.1" xmlns="http://www.w3.org/2000/svg" p-id="2023" xmlns:xlink="http://www.w3.org/1999/xlink" width="200" height="200"><defs><style type="text/css"></style></defs><path d="M882.471545 68.872136h-151.367332V33.300813a33.300813 33.300813 0 0 0-30.273467-33.300813h-9.082039a33.300813 33.300813 0 0 0-33.300813 33.300813v35.571323h-302.734664V33.300813A33.300813 33.300813 0 0 0 322.412417 0h-9.08204a33.300813 33.300813 0 0 0-33.300813 33.300813v35.571323H140.771619A106.713969 106.713969 0 0 0 34.05765 175.586105v741.699926a106.713969 106.713969 0 0 0 106.713969 106.713969h741.699926a106.713969 106.713969 0 0 0 106.713969-106.713969v-741.699926A106.713969 106.713969 0 0 0 882.471545 68.872136z m50.708056 848.413895a50.708056 50.708056 0 0 1-50.708056 49.95122h-741.699926a50.708056 50.708056 0 0 1-49.95122-49.95122v-741.699926a49.95122 49.95122 0 0 1 49.95122-49.95122h139.257945v105.957133a33.300813 33.300813 0 0 0 33.300813 33.300813h9.08204a33.300813 33.300813 0 0 0 33.300813-33.300813v-105.957133h302.734664v105.957133a33.300813 33.300813 0 0 0 33.300813 33.300813h9.082039a33.300813 33.300813 0 0 0 33.300813-33.300813v-105.957133h151.367332a49.95122 49.95122 0 0 1 50.708057 49.95122z" p-id="2024"></path><path d="M815.113082 411.719143a37.841833 37.841833 0 0 0-52.978566 0L488.159645 662.988914 325.439763 504.810052a36.32816 36.32816 0 0 0-52.978566 0 37.841833 37.841833 0 0 0 0 53.735403l181.640799 181.640798a37.084996 37.084996 0 0 0 28.759793 10.595713 39.355506 39.355506 0 0 0 28.002956-9.08204l302.734664-276.245381a37.084996 37.084996 0 0 0 0-52.978566z" p-id="2025"></path></svg>