<?xml version="1.0" standalone="no"?><!DOCTYPE svg PUBLIC "-//W3C//DTD SVG 1.1//EN" "http://www.w3.org/Graphics/SVG/1.1/DTD/svg11.dtd"><svg t="1557121405954" class="icon" style="" viewBox="0 0 1024 1024" version="1.1" xmlns="http://www.w3.org/2000/svg" p-id="3485" xmlns:xlink="http://www.w3.org/1999/xlink" width="200" height="200"><defs><style type="text/css"></style></defs><path d="M539.927273 906.705455H93.090909c-5.585455 0-9.309091-3.723636-9.309091-9.309091V93.090909c0-5.585455 3.723636-9.309091 9.309091-9.309091h741.003636c5.585455 0 9.309091 3.723636 9.309091 9.309091v363.054546c20.48 5.585455 39.098182 13.032727 55.854546 24.203636V93.090909c0-35.374545-29.789091-65.163636-65.163637-65.163636H93.090909C57.716364 27.927273 27.927273 57.716364 27.927273 93.090909v804.305455c0 35.374545 29.789091 65.163636 65.163636 65.163636h500.829091c-20.48-16.756364-37.236364-35.374545-53.992727-55.854545z" p-id="3486"></path><path d="M768.930909 968.145455c-130.327273 0-236.450909-106.123636-236.450909-236.45091s106.123636-236.450909 236.450909-236.450909S1005.381818 601.367273 1005.381818 731.694545 899.258182 968.145455 768.930909 968.145455z m104.261818-242.036364c7.447273 0 14.894545-5.585455 14.894546-14.894546v-18.618181c0-7.447273-5.585455-14.894545-14.894546-14.894546h-61.44l52.130909-52.130909c5.585455-5.585455 5.585455-14.894545 0-20.48l-13.032727-13.032727c-5.585455-5.585455-14.894545-5.585455-20.48 0L781.963636 642.327273c-5.585455 5.585455-14.894545 5.585455-20.48 0l-50.269091-50.269091c-5.585455-5.585455-14.894545-5.585455-20.48 0l-13.032727 13.032727c-5.585455 5.585455-5.585455 14.894545 0 20.48l53.992727 53.992727h-65.163636c-7.447273 0-14.894545 5.585455-14.894545 14.894546v18.618182c0 7.447273 5.585455 14.894545 14.894545 14.894545h80.058182v33.512727h-80.058182c-7.447273 0-14.894545 5.585455-14.894545 14.894546v18.618182c0 7.447273 5.585455 14.894545 14.894545 14.894545h80.058182v37.236364c0 7.447273 5.585455 14.894545 14.894545 14.894545h18.618182c7.447273 0 14.894545-5.585455 14.894546-14.894545v-37.236364H875.054545c7.447273 0 14.894545-5.585455 14.894546-14.894545v-18.618182c0-7.447273-5.585455-14.894545-14.894546-14.894546h-80.058181V726.109091h78.196363z" p-id="3487"></path><path d="M195.490909 204.8h519.447273c5.585455 0 9.309091 3.723636 9.309091 9.309091v48.407273c0 5.585455-3.723636 9.309091-9.309091 9.309091H195.490909c-5.585455 0-9.309091-3.723636-9.309091-9.309091v-48.407273c0-5.585455 3.723636-9.309091 9.309091-9.309091zM195.490909 372.363636h318.370909c5.585455 0 9.309091 3.723636 9.309091 9.309091v48.407273c0 5.585455-3.723636 9.309091-9.309091 9.309091H195.490909c-5.585455 0-9.309091-3.723636-9.309091-9.309091v-48.407273c0-5.585455 3.723636-9.309091 9.309091-9.309091zM195.490909 521.309091h182.458182c5.585455 0 9.309091 3.723636 9.309091 9.309091v48.407273c0 5.585455-3.723636 9.309091-9.309091 9.30909h-182.458182c-5.585455 0-9.309091-3.723636-9.309091-9.30909v-48.407273c0-5.585455 3.723636-9.309091 9.309091-9.309091z" p-id="3488"></path></svg>