<?xml version="1.0" standalone="no"?><!DOCTYPE svg PUBLIC "-//W3C//DTD SVG 1.1//EN" "http://www.w3.org/Graphics/SVG/1.1/DTD/svg11.dtd"><svg t="1556343947363" class="icon" style="" viewBox="0 0 1024 1024" version="1.1" xmlns="http://www.w3.org/2000/svg" p-id="2129" xmlns:xlink="http://www.w3.org/1999/xlink" width="200" height="200"><defs><style type="text/css"></style></defs><path d="M876.064566 305.967408l11.556004-35.05809a103.467687 103.467687 0 0 0-64.362557-130.041622L419.382965 5.31625a99.079331 99.079331 0 0 0-77.527626 5.753622 102.882573 102.882573 0 0 0-50.856173 59.486606 33.887862 33.887862 0 0 0-1.462785 12.726233l-4.04704-0.97519a100.834673 100.834673 0 0 0-76.796233 11.897321 102.004902 102.004902 0 0 0-45.931461 63.387368l-38.032421 157.590746A140.329879 140.329879 0 0 0 48.761905 440.05607v444.101646C48.761905 961.148987 110.540208 1024 186.800087 1024H837.203234C913.121796 1024 975.192656 961.295266 975.192656 884.157716V440.05607c0-63.387367-41.933181-116.925313-99.12809-134.088662zM352.679951 91.279272a36.618394 36.618394 0 0 1 18.382336-21.502946 35.887002 35.887002 0 0 1 27.792923-1.95038l403.826288 135.600206a36.862192 36.862192 0 0 1 23.160769 46.809133L809.410311 300.262545h-34.619254a102.541256 102.541256 0 0 0-13.506385-69.189749 100.493357 100.493357 0 0 0-62.607215-46.516576L349.608101 98.105603a38.568775 38.568775 0 0 0 3.120609-6.826331zM225.953976 173.244013a36.423356 36.423356 0 0 1 16.675753-22.916971 37.05723 37.05723 0 0 1 27.744163-4.290837l413.139356 102.394978a36.08204 36.08204 0 0 1 22.624414 16.870791 37.642344 37.642344 0 0 1 4.290837 28.08548 30.425936 30.425936 0 0 0-0.97519 6.97261H195.235482l30.718494-127.116051z m684.291008 711.059982c0 40.811713-32.815152 74.065701-73.139269 74.0657H186.848846a73.675624 73.675624 0 0 1-73.09051-74.0657v-444.199166c0-40.811713 32.815152-74.11446 73.13927-74.11446h650.305628c40.275358 0 73.09051 33.302748 73.09051 74.11446v444.199166z" p-id="2130"></path><path d="M589.943742 463.265598l-71.920282 135.307649c-6.923851 13.262588-12.531195 24.135959-16.578234 32.815153a367.500451 367.500451 0 0 0-15.408007-30.425937L410.118657 463.265598H347.413923l104.491637 186.26134H367.454083v48.515716h106.637056v27.890442H367.454083v46.07774h106.637056v85.08535H530.505895v-85.08535h106.051942v-46.07774H530.554655v-27.890442h106.051941v-48.515716h-84.402717l104.004042-186.26134h-66.312938z" p-id="2131"></path></svg>