<svg height="512pt" viewBox="0 0 512 512" width="512pt" xmlns="http://www.w3.org/2000/svg"><path d="m505.9375 183.953125-84.9375-63.003906v-44.949219c0-8.285156-6.714844-15-15-15h-64.933594l-75.972656-57.929688c-5.371094-4.09375-12.816406-4.09375-18.1875 0l-75.972656 57.929688h-64.933594c-8.285156 0-15 6.714844-15 15v44.949219l-84.9375 63.003906c-3.8125 2.828125-6.0625 7.296875-6.0625 12.046875v301c0 8.285156 6.714844 15 15 15h482c8.285156 0 15-6.714844 15-15v-301c0-4.75-2.25-9.21875-6.0625-12.046875zm-23.9375 282.855469-160.578125-109.4375 160.578125-128.492188zm-452-237.929688 160.578125 128.492188-160.578125 109.4375zm185.078125 148.097656 31.550781 25.246094c2.738282 2.191406 6.054688 3.285156 9.371094 3.285156s6.632812-1.09375 9.371094-3.285156l31.550781-25.246094 154.097656 105.023438h-390.039062zm258.429687-179.726562-52.507812 42.015625v-80.960937zm-217.507812-163.386719 35.589844 27.136719h-71.179688zm79.972656 57.136719h.015625.015625 54.996094v172.273438c-3.488281 2.789062-131.410156 105.152343-135 108.027343-9.128906-7.308593-131.78125-105.453125-135-108.027343v-172.273438zm-244.972656 148.265625-52.507812-42.015625 52.507812-38.945312zm0 0"/><path d="m256 241c8.269531 0 15 6.730469 15 15s-6.730469 15-15 15c-5.339844 0-10.320312-2.878906-13.003906-7.511719-4.144532-7.171875-13.324219-9.621093-20.492188-5.472656-7.171875 4.148437-9.621094 13.324219-5.476562 20.496094 5.429687 9.382812 14.023437 16.351562 23.972656 19.882812v16.40625c0 8.285157 6.714844 15 15 15s15-6.714843 15-15v-16.378906c17.460938-6.195313 30-22.867187 30-42.421875 0-24.8125-20.1875-45-45-45-8.269531 0-15-6.730469-15-15s6.730469-15 15-15c5.339844 0 10.320312 2.878906 13.003906 7.511719 4.144532 7.171875 13.324219 9.621093 20.492188 5.472656 7.171875-4.148437 9.621094-13.324219 5.476562-20.496094-5.429687-9.382812-14.023437-16.351562-23.972656-19.882812v-17.003907c0-8.285156-6.714844-15-15-15s-15 6.714844-15 15v16.976563c-17.460938 6.195313-30 22.867187-30 42.421875 0 24.8125 20.1875 45 45 45zm0 0"/></svg>