<?xml version="1.0" standalone="no"?><!DOCTYPE svg PUBLIC "-//W3C//DTD SVG 1.1//EN" "http://www.w3.org/Graphics/SVG/1.1/DTD/svg11.dtd"><svg t="1546753741452" class="icon" style="" viewBox="0 0 1024 1024" version="1.1" xmlns="http://www.w3.org/2000/svg" p-id="2012" xmlns:xlink="http://www.w3.org/1999/xlink" width="200" height="200"><defs><style type="text/css"></style></defs><path d="M882.036364 137.309091c-9.309091 0-18.618182 0-25.6 0l0 0C633.018182 137.309091 535.272727 39.563636 535.272727 39.563636l-23.272727-23.272727-23.272727 23.272727c0 0-97.745455 100.072727-323.490909 100.072727-9.309091 0-16.290909 0-25.6 0l-30.254545 0 0 449.163636c0 116.363636 39.563636 288.581818 390.981818 418.909091l11.636364 4.654545 11.636364-4.654545c351.418182-130.327273 390.981818-302.545455 390.981818-418.909091L914.618182 137.309091 882.036364 137.309091 882.036364 137.309091zM868.072727 584.145455c0 65.163636 0 239.709091-356.072727 372.363636C155.927273 823.854545 155.927273 651.636364 155.927273 584.145455L155.927273 186.181818C160.581818 186.181818 162.909091 186.181818 167.563636 186.181818 370.036364 186.181818 477.090909 111.709091 512 81.454545 546.909091 111.709091 653.963636 186.181818 856.436364 186.181818c2.327273 0 6.981818 0 9.309091 0L868.072727 584.145455 868.072727 584.145455zM868.072727 584.145455" p-id="2013"></path><path d="M444.509091 572.509091l-123.345455-93.090909-46.545455 37.236364 202.472727 183.854545c93.090909-202.472727 272.290909-356.072727 272.290909-356.072727l-20.945455-23.272727C584.145455 395.636364 444.509091 572.509091 444.509091 572.509091L444.509091 572.509091zM444.509091 572.509091" p-id="2014"></path></svg>