<?xml version="1.0" standalone="no"?><!DOCTYPE svg PUBLIC "-//W3C//DTD SVG 1.1//EN" "http://www.w3.org/Graphics/SVG/1.1/DTD/svg11.dtd"><svg t="1551682262387" class="icon" style="" viewBox="0 0 1024 1024" version="1.1" xmlns="http://www.w3.org/2000/svg" p-id="3849" xmlns:xlink="http://www.w3.org/1999/xlink" width="200" height="200"><defs><style type="text/css"></style></defs><path d="M648.533333 68.266667H238.933333a102.4 102.4 0 0 0-102.4 102.4v682.666666a102.4 102.4 0 0 0 102.4 102.4h546.133334a102.4 102.4 0 0 0 102.4-102.4V307.2L648.533333 68.266667z m170.666667 238.933333h-136.533333a34.133333 34.133333 0 0 1-34.133334-34.133333V136.533333l170.666667 170.666667z m0 546.133333a34.133333 34.133333 0 0 1-34.133333 34.133334H238.933333a34.133333 34.133333 0 0 1-34.133333-34.133334V170.666667a34.133333 34.133333 0 0 1 34.133333-34.133334h341.333334v136.533334a102.4 102.4 0 0 0 102.4 102.4h136.533333v477.866666zM307.2 512h409.6v68.266667H307.2v-68.266667z m204.8-136.533333H307.2v-68.266667h204.8v68.266667zM307.2 716.8h409.6v68.266667H307.2v-68.266667z" p-id="3850"></path></svg>