<?xml version="1.0" standalone="no"?><!DOCTYPE svg PUBLIC "-//W3C//DTD SVG 1.1//EN" "http://www.w3.org/Graphics/SVG/1.1/DTD/svg11.dtd"><svg t="1551682212677" class="icon" style="" viewBox="0 0 1024 1024" version="1.1" xmlns="http://www.w3.org/2000/svg" p-id="2340" xmlns:xlink="http://www.w3.org/1999/xlink" width="200" height="200"><defs><style type="text/css"></style></defs><path d="M204.9 149.5V960h693.4V149.5H204.9z m655 770.9H243.3V189.1h616.6v731.3z" fill="" p-id="2341"></path><path d="M125.7 64v810.5H225c-0.6-4.2-1-8.5-1.2-12.7-0.4-9.4 1-18.4 4.1-26.9h-63.8V103.6h616.6v55.8c3.7-0.4 7.6-0.6 11.5-0.5 9.4 0 18.4 1.5 26.9 4.2V64H125.7z" fill="" p-id="2342"></path><path d="M316.2 276.6v192.1h192.1V276.6H316.2z m154.5 154.5h-117v-117h117v117zM560.9 276.6H779v50.7H560.9zM560.9 380.7H779v50.7H560.9zM316.2 519.6h470.7v50.7H316.2zM316.2 658.4h470.7v50.7H316.2zM316.2 782.2h470.7v50.7H316.2z" fill="" p-id="2343"></path></svg>