<?xml version="1.0" standalone="no"?><!DOCTYPE svg PUBLIC "-//W3C//DTD SVG 1.1//EN" "http://www.w3.org/Graphics/SVG/1.1/DTD/svg11.dtd"><svg t="1551171121494" class="icon" style="" viewBox="0 0 1024 1024" version="1.1" xmlns="http://www.w3.org/2000/svg" p-id="5144" xmlns:xlink="http://www.w3.org/1999/xlink" width="200" height="200"><defs><style type="text/css"></style></defs><path d="M982.8 311.9c-25.2-19-50.5-50.5-82.1-50.5-9.5 0-19 3.2-28.4 9.5-3.1 3.1-31.6 37.9-28.3 41.1l116.8 72.6c-0.1 0 44.1-28.5 22-72.7zM616.7 804.2c19-6.3 116.8-72.6 116.8-72.6l-116.8-69.3c-6.3 31.6-9.5 66.2-15.8 97.8-3.2 12.6-15.8 53.7 15.8 44.1zM635.6 633.9l113.6 72.6L948.1 416l-123.2-82.1z" p-id="5145"></path><path d="M854.5 647.5c-3.6 3.6-64.2 96.1-74.7 106.8-10.7 10.7-25 17.8-42.8 25-32.1 14.3-121.1 60.6-167.4 85.4-10.7 7.1-25-3.6-21.4-17.8 14.3-67.7 35.6-213.8 42.8-231.6 3.6-3.6 3.6-10.6 7-17.8 7.1-17.8 14.3-32.1 25-49.8 17.8-28.4 217.4-331.3 220.9-338.5s14.3-21.4 14.3-28.4v-21.4c0-17.8 0-32.1-14.3-46.3-10.7-10.7-28.4-21.4-46.3-25-14.3-3.6-25 0-39.1 0H166.9c-28.4 0-46.3 32.1-53.5 57v96.1H149c39.1 0 71.3 32.1 71.3 71.3v17.8c0 39.1-32.1 71.3-71.3 71.3h-35.6v42.8H149c39.1 0 71.3 32.1 71.3 71.3v17.7c0 39.1-32.1 71.3-71.3 71.3h-35.6v42.8H149c39.1 0 71.3 32.1 71.3 71.3v17.8c0 39.1-32.1 71.3-71.3 71.3h-35.6v78.4c0 28.4 14.3 71.3 49.8 71.3H801c17.8 0 39.1-21.4 46.3-35.6 10.7-17.8 7.1-42.8 7.1-64.2V647.5zM345 241.3h285.1c21.4 0 35.6 14.3 35.6 35.6 0 21.4-14.3 35.6-35.6 35.6H345c-21.4 0-35.6-14.3-35.6-35.6 0-21.4 14.2-35.6 35.6-35.6z m178.1 260.1H345c-21.4 0-35.6-14.3-35.6-35.6 0-21.4 14.3-35.6 35.6-35.6h178.1c21.4 0 35.6 14.3 35.6 35.6 0.1 17.8-17.8 35.6-35.6 35.6z" p-id="5146"></path><path d="M77.8 366h71.3c17.8 0 35.6-17.8 35.6-35.6v-17.8c-0.1-17.8-17.8-35.6-35.8-35.6H77.8c-17.8 0-35.6 17.8-35.6 35.6v17.8c-0.1 17.8 17.7 35.6 35.6 35.6zM184.7 740.1v-17.8c-0.1-21.4-17.8-35.6-35.8-35.6H77.8c-17.8 0-35.6 14.3-35.6 35.6v17.8c0 17.8 17.8 35.6 35.6 35.6h71.3c17.8 0 35.6-17.8 35.6-35.6zM77.8 572.7h71.3c17.8 0 35.6-17.8 35.6-35.6v-17.8c-0.1-21.4-17.8-35.6-35.8-35.6H77.8c-17.8 0-35.6 17.8-35.6 35.6V537c-0.1 17.8 17.7 35.7 35.6 35.7z" p-id="5147"></path></svg>