<svg height="512pt" viewBox="0 -16 512 512" width="512pt" xmlns="http://www.w3.org/2000/svg"><path d="m316 150c8.269531 0 15 6.730469 15 15s-6.730469 15-15 15c-5.339844 0-10.320312-2.878906-13.003906-7.511719-4.144532-7.167969-13.320313-9.621093-20.492188-5.472656s-9.621094 13.324219-5.476562 20.496094c5.429687 9.382812 14.023437 16.351562 23.972656 19.882812v16.40625c0 8.285157 6.714844 15 15 15s15-6.714843 15-15v-16.378906c17.460938-6.195313 30-22.867187 30-42.421875 0-24.8125-20.1875-45-45-45-8.269531 0-15-6.730469-15-15s6.730469-15 15-15c5.339844 0 10.320312 2.878906 13.003906 7.511719 4.144532 7.167969 13.320313 9.621093 20.492188 5.472656s9.621094-13.324219 5.476562-20.496094c-5.429687-9.382812-14.023437-16.351562-23.972656-19.882812v-17.003907c0-8.285156-6.714844-15-15-15s-15 6.714844-15 15v16.976563c-17.460938 6.195313-30 22.867187-30 42.421875 0 24.8125 20.1875 45 45 45zm0 0"/><path d="m316 270c74.4375 0 135-60.5625 135-135s-60.5625-135-135-135-135 60.5625-135 135 60.5625 135 135 135zm0-240c57.898438 0 105 47.101562 105 105s-47.101562 105-105 105-105-47.101562-105-105 47.101562-105 105-105zm0 0"/><path d="m512 315c0-24.8125-20.1875-45-45-45-12.382812 0-24.324219 5.175781-32.800781 14.195312-.015625.019532-.035157.035157-.054688.054688l-45.085937 47.679688c-5.613282-18.457032-22.789063-31.929688-43.058594-31.929688h-84.339844l-11.296875-9.9375c-39.542969-34.800781-99.183593-34.800781-138.726562 0l-11.296875 9.9375h-85.339844c-8.285156 0-15 6.714844-15 15v120c0 8.285156 6.714844 15 15 15h88.855469c7.96875 2.414062 16.210937 5.941406 24.898437 9.65625 22.273438 9.535156 47.519532 20.34375 83.308594 20.34375h148.9375c23.480469 0 45.910156-11.214844 59.945312-29.929688l82.015626-108.015624c.007812-.015626.015624-.027344.023437-.039063s.019531-.019531.03125-.035156c5.878906-7.835938 8.984375-17.164063 8.984375-26.980469zm-115 117c-8.453125 11.269531-21.910156 18-36 18h-148.9375c-29.636719 0-50.921875-9.109375-71.507812-17.921875-6.117188-2.617187-27.820313-12.078125-34.554688-12.078125h-76v-90h76c7.179688 0 9.285156-3.191406 25.453125-17.417969 28.246094-24.855469 70.847656-24.855469 99.09375 0l15.542969 13.679688c2.738281 2.410156 6.261718 3.738281 9.910156 3.738281h90c8.269531 0 15 6.730469 15 15s-6.730469 15-15 15h-106.605469c-8.285156 0-15 6.714844-15 15s6.714844 15 15 15h116.660157c12.421874 0 24.40625-5.207031 32.886718-14.285156l67-70.851563c.015625-.015625.023438-.027343.039063-.042969.011719-.015624.027343-.027343.039062-.039062 2.871094-3.085938 6.769531-4.78125 10.980469-4.78125 8.269531 0 15 6.730469 15 15 0 3.273438-1.03125 6.378906-2.984375 8.980469 0 .003906-.003906.003906-.003906.003906zm0 0"/></svg>