<?xml version="1.0" standalone="no"?><!DOCTYPE svg PUBLIC "-//W3C//DTD SVG 1.1//EN" "http://www.w3.org/Graphics/SVG/1.1/DTD/svg11.dtd"><svg t="1554709011031" class="icon" style="" viewBox="0 0 1024 1024" version="1.1" xmlns="http://www.w3.org/2000/svg" p-id="2112" xmlns:xlink="http://www.w3.org/1999/xlink" width="200" height="200"><defs><style type="text/css"></style></defs><path d="M882.9 882.8H141.2c-41 0-74.2-33.1-74.2-74.1V215.4c0-41 33.3-74.2 74.2-74.2h296.7c41 0 74.1 33.3 74.1 74.2C512 326.6 623.2 326.6 623.2 326.6h259.7c41 0 74.1 33.3 74.1 74.2v407.9c0 41-33.1 74.1-74.1 74.1z" fill="#FFCA28" p-id="2113"></path><path d="M549.1 215.4h296.7c20.5 0 37.1 16.6 37.1 37.1v37H623.2c-20.5 0-74.1-53.6-74.1-74.1z" fill="#FFA000" p-id="2114"></path></svg>