<?xml version="1.0" standalone="no"?><!DOCTYPE svg PUBLIC "-//W3C//DTD SVG 1.1//EN" "http://www.w3.org/Graphics/SVG/1.1/DTD/svg11.dtd"><svg t="1550114254399" class="icon" style="" viewBox="0 0 1024 1024" version="1.1" xmlns="http://www.w3.org/2000/svg" p-id="5024" xmlns:xlink="http://www.w3.org/1999/xlink" width="200" height="200"><defs><style type="text/css"></style></defs><path d="M124.544 1023.552h791.488c19.776 0 32.96-13.184 32.96-32.96V34.176c0-19.776-13.184-32.96-32.96-32.96H124.544c-19.456 0-32.384 12.864-32.832 32.064v958.144c0.448 19.264 13.376 32.128 32.832 32.128z m33.024-956.416h725.568v890.432H157.568V67.136z" p-id="5025"></path><path d="M428.8 708.672m-103.616 0a103.616 103.616 0 1 0 207.232 0 103.616 103.616 0 1 0-207.232 0Z" p-id="5026"></path><path d="M223.488 642.304h65.984v132.672H223.488zM223.488 306.624h219.904v111.552H223.488z" p-id="5027"></path><path d="M614.592 354.176m-111.232 0a111.232 111.232 0 1 0 222.464 0 111.232 111.232 0 1 0-222.464 0Z" p-id="5028"></path><path d="M567.104 642.304h283.008v132.672H567.104zM759.04 306.624h91.072v111.552H759.04z" p-id="5029"></path></svg>