<?xml version="1.0" standalone="no"?><!DOCTYPE svg PUBLIC "-//W3C//DTD SVG 1.1//EN" "http://www.w3.org/Graphics/SVG/1.1/DTD/svg11.dtd"><svg t="1547011999063" class="icon" style="" viewBox="0 0 1024 1024" version="1.1" xmlns="http://www.w3.org/2000/svg" p-id="4812" xmlns:xlink="http://www.w3.org/1999/xlink" width="200" height="200"><defs><style type="text/css"></style></defs><path d="M681.373549 124.980479l112.240317 0c10.862395 0 21.723767 10.862395 21.723767 21.723767l0 0 0 488.790392 0 0c0 3.620457-3.620457 10.862395-7.240915 14.482853L681.373549 794.803971l0-65.172325 65.172325-72.41324-65.172325 0 0-43.447535 90.51655 0L771.890099 168.428014l-90.51655 0L681.373549 124.980479zM594.477456 881.700063 594.477456 881.700063 594.477456 881.700063 485.857597 881.700063l0-43.447535 86.896092 0 0-202.75789c0-10.862395 10.862395-21.723767 21.723767-21.723767l86.896092 0 0 43.447535-65.172325 0 0 144.82648 65.172325-72.41324 0 65.172325-68.792782 79.655178C608.960309 878.079606 601.719394 881.700063 594.477456 881.700063L594.477456 881.700063 594.477456 881.700063zM485.857597 124.980479l195.515952 0 0 43.447535L485.857597 168.428014 485.857597 124.980479 485.857597 124.980479zM485.857597 628.253724 485.857597 628.253724c3.620457 0 7.240915 0 10.862395 0 83.275635-50.689473 126.72317-104.999402 148.446937-162.92979 21.723767-61.551868 21.723767-126.72317 21.723767-206.378347l0 0c0-7.240915-7.240915-18.10331-18.10331-18.10331L485.857597 240.842277l0 36.20662 148.446937 0c-3.620457 68.792782-3.620457 126.72317-21.723767 173.792185-18.10331 50.689473-54.30993 97.758488-126.72317 141.206022l0 0L485.857597 628.253724 485.857597 628.253724zM485.857597 505.151012l0-50.689473 25.344225-43.447535 0 0 21.723767-39.827077-47.069015 0 0 0 0-36.20662 79.655178 0 0 0c3.620457 0 7.240915 0 7.240915 3.620457 10.862395 3.620457 14.482853 14.482853 7.240915 25.344225l-39.827077 65.172325 0 0-36.20662 68.792782c-3.620457 3.620457-3.620457 3.620457-7.240915 7.240915C493.099535 505.151012 489.478054 505.151012 485.857597 505.151012zM485.857597 881.700063 225.169319 881.700063c-10.862395 0-21.723767-10.862395-21.723767-21.723767L203.445552 146.704247c0-10.862395 10.862395-21.723767 21.723767-21.723767l260.688277 0 0 43.447535L246.89411 168.428014l0 669.823492 238.96451 0L485.85862 881.700063 485.857597 881.700063zM485.857597 240.842277 322.927807 240.842277c-10.862395 0-18.10331 10.862395-18.10331 18.10331 0 79.655178 0 144.82648 21.723767 206.378347 21.723767 57.930387 65.172325 112.240317 152.068418 162.92979 0 0 3.620457 0 7.240915 0L485.857597 592.047104c-68.792782-43.447535-104.999402-90.51655-123.102712-141.206022-18.10331-47.069015-21.723767-104.999402-21.723767-173.792185l144.82648 0L485.857597 240.842277 485.857597 240.842277zM485.857597 334.979284l-76.033697 0c-10.862395 0-18.10331 7.240915-18.10331 18.10331 0 3.620457 0 7.240915 0 10.862395l0 0 39.827077 65.172325 0 0 39.827077 68.792782c3.620457 7.240915 10.862395 7.240915 14.482853 7.240915l0-50.689473-21.723767-43.447535 0 0 0 0-25.344225-39.827077 47.069015 0 0 0L485.85862 334.979284 485.857597 334.979284zM485.857597 371.185904 485.857597 371.185904 485.857597 371.185904z" p-id="4813"></path></svg>