<?xml version="1.0" standalone="no"?><!DOCTYPE svg PUBLIC "-//W3C//DTD SVG 1.1//EN" "http://www.w3.org/Graphics/SVG/1.1/DTD/svg11.dtd"><svg t="1551338195452" class="icon" style="" viewBox="0 0 1024 1024" version="1.1" xmlns="http://www.w3.org/2000/svg" p-id="2828" xmlns:xlink="http://www.w3.org/1999/xlink" width="200" height="200"><defs><style type="text/css"></style></defs><path d="M928.708119 760.623722v135.362908c0 38.199263-25.868541 64.006685-64.006685 64.006685H175.66313c-38.199263 0-80.34069-25.868541-80.340689-64.006685V159.321486c0-38.199263 25.868541-64.006685 64.006684-64.006685h80.264292c17.693899 0 24.447528-17.709178 24.447528-35.403077s-6.814748-28.603608-24.447528-28.603608H159.329125C69.4539 31.308116 31.331035 87.140158 31.331035 160.6661v728.521061c0 78.980796 47.6574 134.812839 134.812839 134.812839h691.727532c87.094319 0 134.812839-46.297507 134.812838-134.812839v-127.203545c0-39.696674-63.976125-39.467478-63.976125-1.359894z m-689.114702-440.620857a33.14168 33.14168 0 0 0 32.744408 32.744408h151.391318a32.683289 32.683289 0 1 0 0-65.366579h-151.391318a33.14168 33.14168 0 0 0-32.744408 32.622171z m96.87333 144.286256h-64.174761a32.683289 32.683289 0 0 0 0 65.366578h65.549935A33.14168 33.14168 0 0 0 370.52521 496.97241c-1.375173-19.007953-16.334005-32.683289-34.058463-32.683289z m-14.362923 192.050614h-49.811838a32.683289 32.683289 0 0 0 0 65.366578h51.171732a33.14168 33.14168 0 0 0 32.683289-32.683289c-1.359894-19.069072-16.334005-32.683289-34.043183-32.683289zM387.332886 111.664085h37.206082c25.868541 0 47.6574-25.868541 47.6574-55.832042S450.453348 0 423.224913 0h-35.830908c-27.228435 0-49.017294 25.868541-49.017295 55.832043s21.78886 55.832043 49.017295 55.832042z" p-id="2829"></path><path d="M408.220243 687.372816c-24.034976 0-28.848083-19.267708-29.642628-23.744662 4.1408-114.597789 77.422266-216.696778 186.916633-260.412015l17.739737-7.074503-15.906173-10.573556a204.595252 204.595252 0 0 1-91.678231-170.659027c0-112.97814 91.922706-204.900846 204.900847-204.900846S885.451274 101.930913 885.451274 214.909053a204.610532 204.610532 0 0 1-91.678231 170.674306l-15.890894 10.573556 17.892535 7.013385c109.417969 43.684677 182.684155 145.722548 186.931913 260.16754-1.03902 4.583912-6.356357 22.29309-26.174135 22.293089a39.971709 39.971709 0 0 1-4.507513-0.259755h-0.427832c-18.045332-1.283495-30.345494-19.496904-33.431995-24.569765-22.033335-136.78392-106.331468-212.082307-237.507737-212.082308-128.792635 0-208.567975 73.342585-230.723547 212.219825-3.055941 5.317337-16.364564 26.41861-36.167062 26.41861h-2.933704c-0.977901 0.01528-1.803005 0.01528-2.612829 0.01528zM680.596267 75.481743a139.427309 139.427309 0 1 0 139.427309 139.42731 139.580107 139.580107 0 0 0-139.427309-139.42731z" p-id="2830"></path></svg>