<?xml version="1.0" standalone="no"?><!DOCTYPE svg PUBLIC "-//W3C//DTD SVG 1.1//EN" "http://www.w3.org/Graphics/SVG/1.1/DTD/svg11.dtd"><svg t="1547011441563" class="icon" style="" viewBox="0 0 1024 1024" version="1.1" xmlns="http://www.w3.org/2000/svg" p-id="2637" xmlns:xlink="http://www.w3.org/1999/xlink" width="200" height="200"><defs><style type="text/css"></style></defs><path d="M547.642778 76.127841 547.642778 43.180452c0-17.560958-12.750395-32.946366-32.946366-32.946366-20.13048 0-33.837666 14.133905-33.837666 31.630395l0.890276 34.264385C242.553245 92.238774 56.599066 269.396613 20.718881 498.27951l-0.132006 0-0.099261 72.056106 461.260385 0 0 296.52446c0 39.470967-25.666566 65.894779-65.894779 65.894779-40.196491 0-65.894779-26.423813-65.894779-65.894779l-65.894779 0c0 79.007425 49.386804 132.085294 129.910768 132.085294 75.877131 0 125.06746-56.899918 131.886773-129.647779 0.462534-2.240017 0.692778-4.447289 0.692778-6.687306l1.086751-292.27467 461.260385 0-0.26299-72.056106 0.132006 0C973.055724 270.087345 791.913131 92.601025 553.771359 75.633584L547.642778 76.127841 547.642778 76.127841zM86.383416 504.440837c36.900422-200.38382 213.464743-362.418216 428.312996-362.418216 214.94649 0 391.444297 162.034397 428.312996 362.418216L86.383416 504.440837 86.383416 504.440837 86.383416 504.440837z" p-id="2638"></path></svg>