<?xml version="1.0" standalone="no"?><!DOCTYPE svg PUBLIC "-//W3C//DTD SVG 1.1//EN" "http://www.w3.org/Graphics/SVG/1.1/DTD/svg11.dtd"><svg t="1547801421295" class="icon" style="" viewBox="0 0 1024 1024" version="1.1" xmlns="http://www.w3.org/2000/svg" p-id="1972" xmlns:xlink="http://www.w3.org/1999/xlink" width="200" height="200"><defs><style type="text/css"></style></defs><path d="M512.026 0C229.222 0 0 229.248 0 512c0 282.778 229.222 512 512.026 512C794.778 1024 1024 794.778 1024 512 1024 229.248 794.778 0 512.026 0z m-33.23 224c5.889-10.01 21.786-19.2 33.127-19.2 11.853 0 27.776 8.422 34.407 18.176 5.964 8.832 6.374 16.589 7.27 141.184 1.05 146.33 0.717 149.094-19.38 161.357-12.415 7.577-29.772 8.269-41.855 1.715-19.405-10.573-19.098-8.14-19.098-157.389 0-122.854 0.538-137.446 5.53-145.843z m315.649 370.56C769.459 699.162 693.914 779.008 591.36 809.267c-22.758 6.707-37.734 8.807-69.504 9.728-22.298 0.64-47.565-0.102-56.192-1.664-141.747-25.753-241.92-143.872-241.92-285.21 0-79.487 29.747-150.886 85.965-206.361 26.214-25.856 39.526-34.125 54.989-34.125 22.297 0 40.524 18.765 40.473 41.651-0.025 12.212-6.195 20.506-37.837 50.893-42.06 40.397-62.592 88.397-62.592 146.304 0 90.778 60.442 172.826 147.43 200.115 32.078 10.061 87.758 10.087 119.911 0.026 31.744-9.958 71.936-35.635 93.85-60.032 20.198-22.477 41.216-61.926 48.691-91.392 6.298-24.909 6.246-72.832-0.102-97.485a218.06 218.06 0 0 0-73.984-114.099c-25.805-20.66-31.412-34.253-22.887-55.526a39.22 39.22 0 0 1 46.49-23.117c29.67 7.987 82.304 64.077 107.98 115.097 18.433 36.557 25.882 68.199 27.52 116.66 1.357 38.476 0.564 49.715-5.196 73.83z" p-id="1973"></path></svg>