<?xml version="1.0" standalone="no"?><!DOCTYPE svg PUBLIC "-//W3C//DTD SVG 1.1//EN" "http://www.w3.org/Graphics/SVG/1.1/DTD/svg11.dtd"><svg t="1555566477474" class="icon" style="" viewBox="0 0 1024 1024" version="1.1" xmlns="http://www.w3.org/2000/svg" p-id="1993" xmlns:xlink="http://www.w3.org/1999/xlink" width="200" height="200"><defs><style type="text/css"></style></defs><path d="M862.3616 839.68H141.7216a17.8176 17.8176 0 0 1-13.5936-6.7072A11758.336 11758.336 0 0 0 213.2992 716.8H530.176a30.72 30.72 0 1 0 0-61.44H246.016v-235.52c0-103.7568 62.1568-193.0752 151.04-233.2672a254.3616 254.3616 0 0 1 63.0784-18.9952A254.0032 254.0032 0 0 1 502.016 163.84c14.3104 0 28.2368 1.4592 41.8816 3.7376a254.3616 254.3616 0 0 1 63.0528 18.9952c88.9344 40.192 151.04 129.5104 151.04 233.2672v235.52h-84.48a30.72 30.72 0 1 0 0 61.44h117.248a10743.4752 10743.4752 0 0 0 85.1968 116.1728 17.8688 17.8688 0 0 1-13.6192 6.7072M502.016 962.56c-39.9872 0-73.7792-25.7536-86.528-61.44h173.0304c-12.7232 35.6864-46.5152 61.44-86.528 61.44m0-901.12a61.44 61.44 0 0 1 59.52 46.7712A316.544 316.544 0 0 0 502.016 102.4c-20.3264 0-40.192 2.1248-59.4688 5.8112A61.3888 61.3888 0 0 1 502.016 61.44m427.4432 740.5568A10697.344 10697.344 0 0 1 822.272 655.36h-2.816v-235.52c0-131.1744-80.64-244.3776-194.7392-292.608 0.0512-1.4592 0.2048-2.8928 0.2048-4.352a122.88 122.88 0 1 0-245.76 0c0 1.4592 0.1792 2.8928 0.2304 4.352-114.176 48.2304-194.816 161.4336-194.816 292.608v235.52h-2.7648a10602.8544 10602.8544 0 0 1-107.4176 146.944c-9.5232 12.7744-13.2608 29.44-7.9872 44.4928 11.1104 31.5904 40.7552 54.3232 75.3152 54.3232h209.8176a153.6768 153.6768 0 0 0 134.784 122.0864c5.2224 0.3072 10.4192 0.7936 15.7184 0.7936 5.3248 0 10.496-0.4864 15.744-0.7936A153.6768 153.6768 0 0 0 652.544 901.12h209.792c32.6912 0 60.928-20.3264 73.344-49.2544a50.3552 50.3552 0 0 0-6.2208-49.8688" p-id="1994"></path></svg>