<?xml version="1.0" standalone="no"?><!DOCTYPE svg PUBLIC "-//W3C//DTD SVG 1.1//EN" "http://www.w3.org/Graphics/SVG/1.1/DTD/svg11.dtd"><svg t="1553961239719" class="icon" style="" viewBox="0 0 1025 1024" version="1.1" xmlns="http://www.w3.org/2000/svg" p-id="4675" xmlns:xlink="http://www.w3.org/1999/xlink" width="200.1953125" height="200"><defs><style type="text/css"></style></defs><path d="M541.212 847.755c-18.475-31.942-29.377-70.267-29.377-111.139 0-124.22 100.7-224.919 224.919-224.919 29.684 0 58.025 5.751 83.969 16.197-6.24-107.072-64.367-199.059-149.615-250.855-18.757 72.026-83.061 122.343-159.117 122.343-76.386 0-140.918-50.754-161.712-120.379-89.298 53.915-147.691 151.014-147.691 261.752 0 30.032 4.296 59.062 12.304 86.506 4.411-2.695 10.162-2.99 15.983-2.99 93.165 0 168.689 75.524 168.689 168.689 0 12.072-1.268 23.849-3.678 35.203 34.149 12.942 73.577 21.098 114.909 21.098a311.06 311.06 0 0 0 31.725-1.617z m39.642 51c-20.95 4.252-45.031 6.686-69.681 6.686-48.801 0-95.373-9.539-137.954-26.854-27.532 50.432-81.135 83.042-142.354 83.042-93.165 0-168.689-75.524-168.689-168.689 0-67.484 39.627-125.712 96.881-152.686-7.68-30.124-12.691-64.229-12.691-99.504 0-140.313 79.274-262.11 195.475-323.048 9.402-87.953 81.842-155.763 170.121-155.763 88.614 0 161.271 68.329 168.156 155.173l1.893 1.544c116.136 62.516 193.742 183.22 193.742 322.051 0 6.578-0.174 13.116-0.518 19.61 52.949 40.639 86.623 104.607 86.623 176.441 0 124.22-100.7 224.919-224.919 224.919-60.625 0-115.649-23.986-156.097-62.986z m-68.882-555.606h0.009c62.109 0 112.46-50.35 112.46-112.46 0-62.109-50.35-112.46-112.46-112.46h-0.01c-62.106 0.006-112.449 50.353-112.449 112.46 0 62.107 50.345 112.454 112.449 112.46zM230.823 905.447h0.009c62.109 0 112.46-50.35 112.46-112.46 0-62.109-50.35-112.46-112.46-112.46h-0.01c-62.106 0.006-112.449 50.353-112.449 112.46 0 62.107 50.345 112.454 112.449 112.46z m506.068 0c93.165 0 168.689-75.524 168.689-168.689s-75.524-168.689-168.689-168.689c-93.165 0-168.689 75.524-168.689 168.689 0 93.165 75.524 168.689 168.689 168.689z m0-168.69h55.104c15.528 0 28.116 12.588 28.116 28.116s-12.588 28.116-28.116 28.116h-83.22c-15.528 0-28.116-12.588-28.116-28.116v-93.51c0-15.528 12.588-28.116 28.116-28.116s28.116 12.588 28.116 28.116v65.395z" fill="" p-id="4676"></path></svg>