<?xml version="1.0" standalone="no"?><!DOCTYPE svg PUBLIC "-//W3C//DTD SVG 1.1//EN" "http://www.w3.org/Graphics/SVG/1.1/DTD/svg11.dtd"><svg t="1551170770632" class="icon" style="" viewBox="0 0 1024 1024" version="1.1" xmlns="http://www.w3.org/2000/svg" p-id="2544" xmlns:xlink="http://www.w3.org/1999/xlink" width="200" height="200"><defs><style type="text/css"></style></defs><path d="M597.240889 167.036444H426.759111c-15.709333 0-28.444444 12.735111-28.444444 28.444445s12.735111 28.444444 28.444444 28.444444h170.480889c15.709333 0 28.444444-12.735111 28.444444-28.444444s-12.735111-28.444444-28.443555-28.444445z" p-id="2545"></path><path d="M906.666667 823.648V252.369778c0-47.053333-38.28-85.333333-85.333334-85.333334-15.709333 0-28.444444 12.735111-28.444444 28.444445s12.735111 28.444444 28.444444 28.444444c15.684444 0 28.444444 12.76 28.444445 28.444445v571.278222c0 15.684444-12.76 28.444444-28.444445 28.444444H199.111111c-15.684444 0-28.444444-12.76-28.444444-28.444444V252.369778c0-15.684444 12.76-28.444444 28.444444-28.444445 15.709333 0 28.444444-12.735111 28.444445-28.444444s-12.735111-28.444444-28.444445-28.444445c-47.053333 0-85.333333 38.28-85.333333 85.333334v571.278222c0 47.053333 38.28 85.333333 85.333333 85.333333h622.222222c47.053333 0 85.333333-38.28 85.333334-85.333333z" p-id="2546"></path><path d="M340.425778 256.203556V140.437333c0-15.709333-12.735111-28.444444-28.444445-28.444444s-28.444444 12.735111-28.444444 28.444444v115.765334c0 15.709333 12.735111 28.444444 28.444444 28.444444s28.444444-12.735111 28.444445-28.443555zM739.164444 256.203556V140.437333c0-15.709333-12.735111-28.444444-28.444444-28.444444s-28.444444 12.735111-28.444444 28.444444v115.765334c0 15.709333 12.735111 28.444444 28.444444 28.444444s28.444444-12.735111 28.444444-28.443555zM226.865778 422.082667c0 15.709333 12.735111 28.444444 28.444444 28.444444h509.522667c15.709333 0 28.444444-12.735111 28.444444-28.444444s-12.735111-28.444444-28.444444-28.444445H255.310222c-15.709333 0-28.444444 12.735111-28.444444 28.444445zM764.832889 625.157333c15.709333 0 28.444444-12.735111 28.444444-28.444444s-12.735111-28.444444-28.444444-28.444445H255.310222c-15.709333 0-28.444444 12.735111-28.444444 28.444445s12.735111 28.444444 28.444444 28.444444h509.522667z" p-id="2547"></path></svg>
