<?xml version="1.0" standalone="no"?><!DOCTYPE svg PUBLIC "-//W3C//DTD SVG 1.1//EN" "http://www.w3.org/Graphics/SVG/1.1/DTD/svg11.dtd"><svg t="1551338132028" class="icon" style="" viewBox="0 0 1024 1024" version="1.1" xmlns="http://www.w3.org/2000/svg" p-id="2075" xmlns:xlink="http://www.w3.org/1999/xlink" width="200" height="200"><defs><style type="text/css"></style></defs><path d="M678.3 308.6H217.5c-13.8 0-25-11.2-25-25s11.2-25 25-25h460.8c13.8 0 25 11.2 25 25s-11.2 25-25 25zM551.1 456.3H217.5c-13.8 0-25-11.2-25-25s11.2-25 25-25h333.6c13.8 0 25 11.2 25 25s-11.2 25-25 25zM420.5 603.9h-203c-13.8 0-25-11.2-25-25s11.2-25 25-25h202.9c13.8 0 25 11.2 25 25 0.1 13.8-11.1 25-24.9 25zM858.9 619.1c-9.8-9.8-25.6-9.8-35.4 0l-68 68-31.6-31.6c-9.8-9.8-25.6-9.8-35.4 0-9.8 9.8-9.8 25.6 0 35.4l49.2 49.2c9.8 9.8 25.6 9.8 35.4 0l85.7-85.7c9.8-9.7 9.8-25.5 0.1-35.3z" p-id="2076"></path><path d="M629.5 899c0-13.8-11.2-25-25-25H142c-13.8 0-25-15-25-33.5v-657c0-18.5 11.2-33.5 25-33.5h740c13.8 0 25 15 25 33.5v237.7c0 13.8 11.2 25 25 25s25-11.2 25-25V135.9c0-21.5-13.4-38.9-30-38.9H97c-16.6 0-30 17.4-30 38.9v752.2c0 21.5 13.4 38.9 30 38.9h507.5c13.8 0 25-11.2 25-25v-3z" p-id="2077"></path><path d="M768.2 504.6c34.5 16.9 98.5 44 169.4 53.8-3.7 48.9-13.3 95.3-28.8 138.5-16.1 45.2-38.7 87.2-67 124.8-27.1 36-54.5 61.2-73.6 76.5-19-15.4-46.3-40.6-73.3-76.6-28.2-37.6-50.7-79.7-66.7-124.9-15.4-43.3-25-89.8-28.7-138.6 70.8-9.8 134.4-36.8 168.7-53.5m0-52.9c-4 0-8 0.9-11.7 2.8-31.1 16.1-119.6 57.2-208.6 57.3 0 319.6 220.3 447.9 220.3 447.9s221.1-128 221.1-447.6c-89.1 0-178.1-41.5-209.4-57.6-3.6-1.9-7.7-2.8-11.7-2.8z" p-id="2078"></path></svg>