<?xml version="1.0" standalone="no"?>
<!DOCTYPE svg PUBLIC "-//W3C//DTD SVG 20010904//EN"
 "http://www.w3.org/TR/2001/REC-SVG-20010904/DTD/svg10.dtd">
<svg version="1.0" xmlns="http://www.w3.org/2000/svg"
 width="512.000000pt" height="512.000000pt" viewBox="0 0 512.000000 512.000000"
 preserveAspectRatio="xMidYMid meet">
<metadata>
Created by potrace 1.15, written by Peter Selinger 2001-2017
</metadata>
<g transform="translate(0.000000,512.000000) scale(0.100000,-0.100000)" stroke="none">
<path d="M1665 4293 c-751 -43 -1390 -567 -1575 -1291 -68 -270 -68 -614 0
-884 139 -543 548 -997 1070 -1186 448 -162 958 -139 1373 64 446 218 758 585
902 1060 51 170 69 298 69 504 0 206 -18 334 -69 504 -211 695 -802 1170
-1528 1226 -119 9 -138 10 -242 3z m225 -823 l0 -110 53 0 c100 -1 323 -61
313 -86 -2 -6 -19 -67 -37 -135 -18 -68 -34 -126 -35 -128 -2 -2 -30 8 -61 22
-165 73 -401 82 -478 19 -57 -47 -69 -102 -36 -156 27 -43 132 -104 287 -165
144 -58 186 -81 259 -139 104 -83 150 -212 143 -397 -5 -121 -24 -171 -98
-249 -58 -61 -160 -117 -252 -137 l-58 -12 0 -129 0 -128 -125 0 -125 0 0 120
0 120 -44 0 c-24 0 -79 7 -123 15 -78 15 -263 72 -263 82 0 2 16 67 36 143
l37 138 71 -34 c108 -51 214 -76 331 -77 117 0 168 16 215 69 25 29 30 43 30
87 0 93 -60 152 -199 198 -116 38 -254 101 -322 145 -83 54 -133 110 -168 183
-23 49 -26 68 -26 161 0 102 1 109 38 182 60 123 184 217 340 258 l47 13 0
118 0 119 125 0 125 0 0 -110z"/>
<path d="M2770 4276 c0 -4 26 -23 58 -43 160 -102 365 -285 485 -433 388 -480
529 -1105 386 -1708 -112 -469 -414 -905 -809 -1165 -47 -31 -94 -63 -105 -72
-19 -14 -18 -15 20 -9 363 55 655 188 915 416 576 508 742 1371 396 2069 -241
484 -711 840 -1226 929 -36 6 -77 13 -92 16 -16 3 -28 3 -28 0z"/>
<path d="M3560 4277 c0 -3 44 -36 98 -73 465 -321 755 -766 859 -1319 20 -110
28 -418 14 -541 -70 -590 -377 -1099 -859 -1421 -62 -41 -111 -77 -109 -79 9
-10 239 40 345 75 622 205 1059 727 1158 1386 18 119 20 373 3 488 -46 331
-190 648 -411 907 -246 287 -634 506 -1003 564 -22 4 -52 9 -67 12 -16 3 -28
3 -28 1z"/>
</g>
</svg>
