<svg height="512pt" viewBox="0 0 512 512" width="512pt" xmlns="http://www.w3.org/2000/svg"><path d="m467 361h-45.808594c1.234375-41.269531 8.480469-74.714844 22.046875-101.941406 5.152344-10.332032 7.761719-21.453125 7.761719-33.058594 0-22.695312-10.113281-43.921875-27.746094-58.242188-9.480468-7.703124-20.539062-12.847656-32.253906-15.222656v-137.535156c0-8.285156-6.714844-15-15-15h-271c-.070312 0-.140625.0117188-.210938.0117188-3.941406.0546874-7.679687 1.6757812-10.382812 4.3710932-.003906.003907-.011719.007813-.015625.011719l-89.996094 89.996094c-.003906.003906-.007812.011719-.011719.015625-2.644531 2.648438-4.3085932 6.3125-4.3710932 10.367188 0 .078124-.0117188.152343-.0117188.226562v392c0 8.285156 6.714844 15 15 15h452c8.285156 0 15-6.714844 15-15v-46h15c8.285156 0 15-6.714844 15-15v-30c0-24.8125-20.1875-45-45-45zm-46-135c0 6.917969-1.550781 13.539062-4.609375 19.675781-15.640625 31.382813-23.917969 69.214844-25.207031 115.324219h-30.183594c0-30.480469-3.757812-60.480469-26.898438-118.699219-3.4375-8.640625-4.019531-18.25-1.6875-27.789062 3.917969-16.019531 17.453126-29.066407 33.679688-32.46875 13.925781-2.917969 27.507812.277343 38.25 9.003906 10.585938 8.597656 16.65625 21.335937 16.65625 34.953125zm-331-174.785156v38.785156h-38.785156zm-60 68.785156h75c8.285156 0 15-6.714844 15-15v-75h241v122.472656c-.351562.070313-.707031.132813-1.058594.207032-27.292968 5.722656-50.066406 27.707031-56.667968 54.707031-3.820313 15.625-2.800782 31.53125 2.949218 45.996093 21.8125 54.875 24.777344 81.3125 24.777344 107.617188h-45c-24.8125 0-45 20.1875-45 45v30c0 8.285156 6.714844 15 15 15h15v31h-241zm422 362c-4.339844 0-147.089844 0-151 0v-31h151zm30-61h-211v-15c0-8.269531 6.730469-15 15-15h181c8.269531 0 15 6.730469 15 15zm0 0"/><path d="m196 181c8.269531 0 15 6.730469 15 15s-6.730469 15-15 15c-5.339844 0-10.320312-2.878906-13.003906-7.511719-4.144532-7.167969-13.320313-9.621093-20.492188-5.472656s-9.621094 13.324219-5.472656 20.496094c5.425781 9.382812 14.023438 16.351562 23.96875 19.882812v16.40625c0 8.285157 6.714844 15 15 15s15-6.714843 15-15v-16.378906c17.460938-6.195313 30-22.867187 30-42.421875 0-24.8125-20.1875-45-45-45-8.269531 0-15-6.730469-15-15s6.730469-15 15-15c5.339844 0 10.320312 2.878906 13.003906 7.511719 4.144532 7.167969 13.320313 9.621093 20.492188 5.472656s9.621094-13.324219 5.472656-20.496094c-5.425781-9.382812-14.023438-16.351562-23.96875-19.882812v-17.003907c0-8.285156-6.714844-15-15-15s-15 6.714844-15 15v16.976563c-17.460938 6.195313-30 22.867187-30 42.421875 0 24.8125 20.1875 45 45 45zm0 0"/><path d="m226 301h-151c-8.285156 0-15 6.714844-15 15s6.714844 15 15 15h151c8.285156 0 15-6.714844 15-15s-6.714844-15-15-15zm0 0"/><path d="m196 361h-121c-8.285156 0-15 6.714844-15 15s6.714844 15 15 15h121c8.285156 0 15-6.714844 15-15s-6.714844-15-15-15zm0 0"/><path d="m196 421h-121c-8.285156 0-15 6.714844-15 15s6.714844 15 15 15h121c8.285156 0 15-6.714844 15-15s-6.714844-15-15-15zm0 0"/></svg>