<?xml version="1.0" standalone="no"?><!DOCTYPE svg PUBLIC "-//W3C//DTD SVG 1.1//EN" "http://www.w3.org/Graphics/SVG/1.1/DTD/svg11.dtd"><svg t="1547021002435" class="icon" style="" viewBox="0 0 1024 1024" version="1.1" xmlns="http://www.w3.org/2000/svg" p-id="7989" xmlns:xlink="http://www.w3.org/1999/xlink" width="200" height="200"><defs><style type="text/css"></style></defs><path d="M299.35339 128.09133c-94.592378 0-171.268712 76.610842-171.268712 171.127496 0 94.509491 76.676333 171.120332 171.268712 171.120332l171.269735 0L470.623126 299.218826C470.623126 204.702172 393.947815 128.09133 299.35339 128.09133zM895.914298 299.218826c0-94.516654-76.68759-171.127496-171.295318-171.127496-94.581122 0-171.256432 76.610842-171.256432 171.127496l0 171.120332 171.256432 0C819.225685 470.339158 895.914298 393.728316 895.914298 299.218826zM584.312444 299.218826c0-37.439704 14.595416-72.629157 41.097-99.106182 26.490328-26.483164 61.730946-41.065278 99.209536-41.065278 37.490869 0 72.732511 14.582113 99.247398 41.065278 26.489304 26.477025 41.072441 61.666478 41.072441 99.106182 0 37.432541-14.583137 72.623018-41.072441 99.099019-26.514887 26.483164-61.757552 41.065278-99.247398 41.065278L584.312444 439.383122 584.312444 299.218826zM724.61898 553.660842 553.362548 553.660842l0 171.120332c0 94.509491 76.676333 171.127496 171.256432 171.127496 94.606705 0 171.295318-76.618005 171.295318-171.127496S819.225685 553.660842 724.61898 553.660842zM128.084679 724.781174c0 94.509491 76.676333 171.127496 171.268712 171.127496 94.593402 0 171.269735-76.618005 171.269735-171.127496L470.623126 553.660842 299.35339 553.660842C204.761012 553.660842 128.084679 630.27066 128.084679 724.781174z" p-id="7990"></path></svg>