<?xml version="1.0" standalone="no"?><!DOCTYPE svg PUBLIC "-//W3C//DTD SVG 1.1//EN" "http://www.w3.org/Graphics/SVG/1.1/DTD/svg11.dtd"><svg t="1554539242013" class="icon" style="" viewBox="0 0 1024 1024" version="1.1" xmlns="http://www.w3.org/2000/svg" p-id="1983" xmlns:xlink="http://www.w3.org/1999/xlink" width="200" height="200"><defs><style type="text/css"></style></defs><path d="M701.755762 917.499407c-95.650477 0-173.406398-77.999468-173.406399-173.94875 0-52.142567 23.008017-98.942453 59.329247-130.890073l-9.692756 68.917626c-1.598404 11.646248 6.496971 22.544459 18.107403 24.14798 0.957815 0.107447 2.0241 0.213871 2.982937 0.213871 10.437723 0 19.59836-7.693216 21.090341-18.37858l15.338337-108.878756v-0.427742c0-0.427742 0.106424-0.748037 0.106424-1.175779v-2.136663c0-0.320295 0-0.64059-0.106424-0.960885 0-0.320295-0.106424-0.748037-0.106424-1.068331 0-0.320295-0.106424-0.64059-0.106424-0.961908-0.106424-0.320295-0.106424-0.64059-0.212848-1.068332-0.106424-0.320295-0.212848-0.64059-0.212847-1.068331l-0.319272-0.960885-0.319271-0.961908c-0.106424-0.320295-0.212848-0.64059-0.426719-0.960884-0.106424-0.320295-0.319272-0.64059-0.426719-0.960885-0.106424-0.320295-0.319272-0.535189-0.426718-0.85446-0.212848-0.320295-0.319272-0.64059-0.533143-0.854461-0.212848-0.320295-0.426719-0.534166-0.533143-0.854461-0.212848-0.320295-0.426719-0.533143-0.638543-0.85446-0.212848-0.320295-0.426719-0.535189-0.638543-0.854461-0.212848-0.213871-0.426719-0.534166-0.638543-0.748037l-0.74599-0.748037a4.592598 4.592598 0 0 0-0.74599-0.64059c-0.319272-0.213871-0.533143-0.427742-0.852414-0.640589-0.212848-0.213871-0.533143-0.427742-0.852414-0.64059-0.319272-0.213871-0.533143-0.427742-0.852414-0.534166-0.319272-0.213871-0.638543-0.320295-0.852414-0.535189-0.319272-0.213871-0.638543-0.320295-0.852415-0.427742-0.319272-0.213871-0.638543-0.320295-0.957814-0.427742-0.319272-0.107447-0.638543-0.213871-0.958838-0.427742-0.319272-0.107447-0.74599-0.320295-1.065262-0.427742l-0.957814-0.320295c-0.426719-0.107447-0.74599-0.213871-1.171686-0.320294-0.106424 0-0.319272-0.107447-0.426719-0.107448L502.253008 531.349697c-11.502985-2.351558-22.794146 5.236258-25.031092 16.775058-2.342348 11.538801 5.219885 22.865777 16.722869 25.108865l60.287062 12.073989c-42.180681 39.534412-68.489884 95.842859-68.489884 158.135601 0 119.456672 96.928586 216.689181 216.011752 216.68918 1.917676 0 3.940752 0 5.858428-0.107447 7.988951-5.662977 12.036128-12.501732 12.887518-19.125593 0.957815-7.693216-2.449795-16.134469-7.242961-23.934108-3.832282 0.426719-7.667633 0.534166-11.500938 0.534165zM956.645986 875.934756c-2.87549-11.4334-14.379499-18.378579-25.777083-15.599279L873.776603 874.653577c27.693736-36.435841 44.203758-81.8471 44.203758-131.10292 0-110.268406-82.442664-201.51662-188.743711-214.979236-7.349385 3.098571-13.739932 9.829879-15.657609 15.599279-2.87549 8.441253-1.598404 17.310248 0 25.857925 90.218768 5.983271 161.79699 81.524758 161.79699 173.522032 0 40.602743-21.835308 90.393753-47.39852 116.892267l-19.172665-61.865c-3.515057-11.218506-15.44476-17.523095-26.629497-13.997805-11.183713 3.52529-17.46886 15.492856-13.953803 26.712385l32.593326 104.925724c0 0.107447 0.106424 0.213871 0.106423 0.320295 0.106424 0.320295 0.212848 0.535189 0.319272 0.854461 0.106424 0.320295 0.212848 0.534166 0.319271 0.85446 0.106424 0.320295 0.212848 0.534166 0.426719 0.854461 0.106424 0.213871 0.212848 0.535189 0.426719 0.748037 0.106424 0.213871 0.319272 0.535189 0.426718 0.748037 0.106424 0.213871 0.319272 0.535189 0.426719 0.748036 0.106424 0.213871 0.319272 0.427742 0.426719 0.748037 0.212848 0.213871 0.319272 0.535189 0.533142 0.748037 0.212848 0.213871 0.319272 0.427742 0.53212 0.64059 0.212848 0.213871 0.426719 0.427742 0.638543 0.748037 0.212848 0.213871 0.319272 0.427742 0.533142 0.534165l0.638543 0.64059 0.533143 0.535189c0.212848 0.213871 0.426719 0.427742 0.74599 0.64059 0.212848 0.213871 0.426719 0.320295 0.638543 0.427742 0.212848 0.213871 0.533143 0.320295 0.74599 0.535189 0.212848 0.107447 0.426719 0.320295 0.638543 0.427742 0.212848 0.213871 0.532119 0.320295 0.745991 0.427742 0.212848 0.107447 0.426719 0.320295 0.74599 0.427742 0.212848 0.107447 0.533143 0.213871 0.74599 0.427742 0.212848 0.107447 0.533143 0.213871 0.74599 0.320295 0.212848 0.107447 0.532119 0.213871 0.74599 0.320295 0.319272 0.107447 0.532119 0.213871 0.852415 0.320295 0.212848 0.107447 0.532119 0.107447 0.74599 0.213871 0.319272 0.107447 0.533143 0.213871 0.852414 0.213871 0.319272 0.107447 0.533143 0.107447 0.852414 0.213871 0.319272 0.107447 0.533143 0.107447 0.852414 0.213871 0.319272 0 0.638543 0.107447 0.957815 0.107447 0.212848 0 0.533143 0.107447 0.74599 0.107447 0.533143 0 1.065262 0.107447 1.490957 0.107447h2.1295c0.319272 0 0.638543-0.107447 0.958838-0.107447 0.212848 0 0.426719-0.107447 0.533143-0.107447 0.319272 0 0.638543-0.107447 0.958837-0.213871 0.212848 0 0.319272-0.107447 0.53212-0.107447h0.212847l115.03599-28.849049c11.178597-2.995217 18.101263-14.640442 15.33322-26.073842zM585.121368 334.533123c-9.160637-1.283226-16.297175 2.564405-22.688745 8.975418-57.624419 57.911968-115.356284 115.716488-173.087127 173.629479-1.278109 1.282203-2.449795 2.8847-4.260024 5.021364-12.675694-12.71458-24.498974-24.788569-36.428677-36.648688-14.911618-14.95869-29.824259-30.024827-44.843325-44.877094-10.437723-10.257621-26.415626-9.829879-36.001958 0.748037-8.946766 10.04375-8.200776 24.682146 2.023076 34.939767 31.42164 31.519878 62.844304 63.040778 94.372368 94.454232 14.060227 14.104229 27.160593 14.104229 41.115419 0.107447 63.484893-63.469544 127.180588-127.364783 190.770882-191.153598 1.490957-1.388627 2.982938-2.8847 4.260023-4.488221 6.071276-7.479345 7.881504-15.813151 4.473895-24.894993-3.409656-8.975419-10.119475-14.3181-19.705807-15.81315z" p-id="1984"></path><path d="M193.465247 580.924789c-36.108383-64.001663-58.690704-132.706441-70.512961-205.042933-7.455809-45.303812-10.225899-90.928942-8.946766-136.874367 0.212848-9.296737 1.065262-18.485003 1.490957-27.780717 14.273075-0.64059 27.801183-1.283226 41.220821-2.136663 83.507926-5.876847 162.116261-28.849048 235.93143-68.489884 12.782118-6.837732 25.137517-14.424524 37.386492-22.011316 3.195785-1.923816 5.219885-1.816369 8.201799 0.107447 66.785056 42.632983 139.215692 70.306252 217.184461 83.769892 30.570249 5.236258 61.45977 7.79964 92.561116 8.228405 1.278109 0 2.662643 0.213871 4.473894 0.320295 0.319272 4.488221 0.957815 8.867972 1.171686 13.249769 3.727904 85.905532-5.539156 168.607092-31.102368 247.24715 16.403598 3.098571 32.166607 7.693216 47.399543 13.570063 15.765055-49.578162 25.777083-101.399411 30.889521-155.144476 3.727904-39.534412 4.154623-79.0678 1.278109-118.816082-2.023076-29.91738-21.516036-49.470715-51.233871-49.898457-28.120454-0.427742-56.239885-2.564405-83.933621-7.15905-73.495898-12.07399-141.665487-38.252209-204.509791-78.427211-3.834328-2.456958-7.988951-4.701069-12.248975-6.197142-16.084327-5.449106-30.889521-2.456958-45.162596 6.624884-70.51296 45.089941-147.311067 72.442916-230.392274 81.419358-20.771069 2.24411-41.860387 2.564405-62.736856 3.953032-23.540136 1.496074-43.138496 20.515243-45.056172 44.129056-1.384533 18.911722-2.023076 37.824467-2.982938 56.843636 0.74599 66.245773 9.054213 131.530662 26.629497 195.319478 26.629497 96.270601 71.578222 182.817746 138.788974 256.971629 51.66059 56.95006 112.479771 101.399411 182.460611 133.240607 10.332323 4.701069 20.450774 6.304589 30.676673 4.594645a262.622326 262.622326 0 0 1-21.409612-54.812374c-98.633415-47.656393-173.513846-121.061216-227.516783-216.798674z" p-id="1985"></path></svg>