<?xml version="1.0" standalone="no"?><!DOCTYPE svg PUBLIC "-//W3C//DTD SVG 1.1//EN" "http://www.w3.org/Graphics/SVG/1.1/DTD/svg11.dtd"><svg t="1554622305680" class="icon" style="" viewBox="0 0 1024 1024" version="1.1" xmlns="http://www.w3.org/2000/svg" p-id="2097" xmlns:xlink="http://www.w3.org/1999/xlink" width="200" height="200"><defs><style type="text/css"></style></defs><path d="M680.200916 605.492176C697.840647 605.492176 712.137945 619.837451 712.137945 637.52516 712.137945 655.212869 697.840647 669.558145 680.200916 669.558145L541.03415 669.558145 541.03415 770.950617C541.03415 788.638326 526.736852 802.983601 509.097121 802.983601 491.473382 802.983601 477.176084 788.638326 477.176084 770.950617L477.176084 669.558145 338.009318 669.558145C320.369587 669.558145 306.072289 655.212869 306.072289 637.52516 306.072289 619.837451 320.369587 605.492176 338.009318 605.492176L477.176084 605.492176 477.176084 509.393222 338.009318 509.393222C320.369587 509.393222 306.072289 495.047946 306.072289 477.360237 306.072289 459.672529 320.369587 445.327253 338.009318 445.327253L485.748066 445.327253C480.85436 443.855943 476.168556 441.601 472.314363 437.730814L341.063886 306.064532C328.589734 293.558395 328.589734 273.2799 341.063886 260.773762 353.522047 248.267625 373.736571 248.267625 386.210724 260.773762L509.097121 384.043979 631.951533 260.75777C644.425685 248.251632 664.64021 248.251632 677.114363 260.75777 689.588515 273.247915 689.588515 293.542402 677.130355 306.04854L545.911864 437.730814C542.041678 441.601 537.355874 443.855943 532.462168 445.327253L680.200916 445.327253C697.840647 445.327253 712.137945 459.672529 712.137945 477.360237 712.137945 495.047946 697.840647 509.393222 680.200916 509.393222L541.03415 509.393222 541.03415 605.492176 680.200916 605.492176ZM509.097121 443.296205C507.449893 444.127815 505.722702 444.73553 503.995512 445.327253L514.214722 445.327253C512.487531 444.73553 510.760341 444.127815 509.097121 443.296205ZM981.243802 716.879963C926.565432 842.085273 826.372398 938.504076 699.13604 988.384695 638.588422 1012.11757 575.370055 1023.952022 512.231651 1023.952022 442.696246 1023.952022 373.256796 1009.590754 307.607569 980.932188 182.338289 926.237826 85.871508 826.076777 35.990889 698.888396-13.889729 571.684023-11.234974 432.693175 43.459388 307.45588 98.137758 182.25057 198.330792 85.831766 325.583143 35.951148 452.803508-13.929471 591.858326-11.290707 717.095621 43.387662 733.807788 50.680244 741.436212 70.127128 734.14363 86.839294 726.851049 103.519475 707.388172 111.147899 690.676006 103.87131 581.575147 56.229642 460.47991 53.974699 349.683846 97.394346 238.855796 140.845978 151.584705 224.822614 103.959029 333.859503 56.317361 442.928377 54.014441 564.007621 97.45008 674.787693 140.901712 785.567765 224.926326 872.806872 334.027185 920.44854 443.128044 968.058223 564.22328 970.361143 675.035337 926.941496 785.847394 883.489864 873.118486 799.529221 920.744161 690.476339 990.055671 531.830704 960.549502 345.661971 845.54741 216.138685 833.441084 202.513072 834.6885 181.642855 848.330105 169.53653 861.955718 157.46219 882.825935 158.709605 894.916268 172.303233 1026.950377 321.017523 1060.838492 534.773325 981.243802 716.879963Z" p-id="2098"></path></svg>