<?xml version="1.0" standalone="no"?><!DOCTYPE svg PUBLIC "-//W3C//DTD SVG 1.1//EN" "http://www.w3.org/Graphics/SVG/1.1/DTD/svg11.dtd"><svg t="1554397918679" class="icon" style="" viewBox="0 0 1024 1024" version="1.1" xmlns="http://www.w3.org/2000/svg" p-id="7278" xmlns:xlink="http://www.w3.org/1999/xlink" width="200" height="200"><defs><style type="text/css"></style></defs><path d="M755.2 156.444444h-39.822222c-9.955556-41.244444-45.511111-71.111111-89.6-71.111111H398.222222c-44.088889 0-79.644444 29.866667-89.6 71.111111h-39.822222c-54.044444 0-98.133333 44.088889-98.133333 99.555556v583.111111c0 55.466667 44.088889 99.555556 98.133333 99.555556h486.4c54.044444 0 98.133333-44.088889 98.133333-99.555556V256c0-55.466667-44.088889-99.555556-98.133333-99.555556z m-392.533333 21.333334c0-19.911111 15.644444-35.555556 35.555555-35.555556h227.555556c19.911111 0 35.555556 15.644444 35.555555 35.555556v14.222222c0 19.911111-15.644444 35.555556-35.555555 35.555556H398.222222c-19.911111 0-35.555556-15.644444-35.555555-35.555556v-14.222222zM796.444444 839.111111c0 24.177778-18.488889 42.666667-41.244444 42.666667H268.8c-22.755556 0-41.244444-18.488889-41.244444-42.666667V256c0-24.177778 18.488889-42.666667 41.244444-42.666667h39.822222c9.955556 41.244444 45.511111 71.111111 89.6 71.111111h227.555556c44.088889 0 79.644444-29.866667 89.6-71.111111h39.822222c22.755556 0 41.244444 18.488889 41.244444 42.666667v583.111111z" p-id="7279"></path><path d="M476.444444 422.4l-68.266666 68.266667c-2.844444 1.422222-5.688889 2.844444-8.533334 5.688889l-73.955555 73.955555c-32.711111 34.133333-32.711111 88.177778 0 120.888889 15.644444 17.066667 38.4 25.6 59.733333 25.6 22.755556 0 44.088889-8.533333 59.733334-25.6l130.844444-130.844444c11.377778-11.377778 11.377778-28.444444 0-39.822223-11.377778-11.377778-28.444444-11.377778-39.822222 0l-130.844445 130.844445c-11.377778 11.377778-28.444444 11.377778-39.822222 0s-11.377778-28.444444 0-39.822222l52.622222-54.044445c2.844444-1.422222 5.688889-2.844444 8.533334-5.688889l89.6-89.6c32.711111-32.711111 86.755556-32.711111 119.466666 0s32.711111 86.755556 0 119.466667l-89.6 89.6c-11.377778 11.377778-11.377778 28.444444 0 39.822222 5.688889 5.688889 12.8 8.533333 19.911111 8.533333s14.222222-2.844444 19.911112-8.533333l91.022222-88.177778c55.466667-55.466667 55.466667-145.066667 0-200.533333-55.466667-55.466667-145.066667-55.466667-200.533334 0z" p-id="7280"></path></svg>