<?xml version="1.0" standalone="no"?><!DOCTYPE svg PUBLIC "-//W3C//DTD SVG 1.1//EN" "http://www.w3.org/Graphics/SVG/1.1/DTD/svg11.dtd"><svg t="1559107265560" class="icon" style="" viewBox="0 0 1024 1024" version="1.1" xmlns="http://www.w3.org/2000/svg" p-id="3819" xmlns:xlink="http://www.w3.org/1999/xlink" width="200" height="200"><defs><style type="text/css"></style></defs><path d="M857.17045462 90.125H166.82954538C120.80681848 90.125 90.125 120.80681848 90.125 166.82954538v134.23295462c0 46.0227269 30.68181848 76.70454538 76.70454538 76.70454538h690.34090924c46.0227269 0 76.70454538-30.68181848 76.70454538-76.70454538V166.82954538c0-46.0227269-30.68181848-76.70454538-76.70454538-76.70454538z m38.35227228 210.9375c0 24.9289769-13.42329538 38.3522731-38.35227228 38.3522731H166.82954538c-24.9289769 0-38.3522731-13.42329538-38.35227228-38.3522731V166.82954538c0-24.9289769 13.42329538-38.3522731 38.35227228-38.35227228h690.34090924c24.9289769 0 38.3522731 13.42329538 38.35227228 38.35227228v134.23295462z m-575.28409077 172.5852269H166.82954538c-46.0227269 0-76.70454538 30.68181848-76.70454538 76.7045462v306.81818152c0 46.0227269 30.68181848 76.70454538 76.70454538 76.70454538h153.40909075c46.0227269 0 76.70454538-30.68181848 76.70454539-76.70454538V550.3522731c1.91761387-47.94034075-30.68181848-76.70454538-76.70454539-76.7045462z m38.35227312 383.52272772c0 24.9289769-13.42329538 38.3522731-38.35227312 38.35227228H166.82954538c-24.9289769 0-38.3522731-13.42329538-38.35227228-38.35227228V550.3522731c0-24.9289769 13.42329538-38.3522731 38.35227228-38.3522731h153.40909075c24.9289769 0 38.3522731 13.42329538 38.35227311 38.3522731v306.81818152z m556.10795462-383.52272772H531.17613613c-11.50568152 0-19.17613613 7.67045462-19.17613613 19.17613697s7.67045462 19.17613613 19.17613613 19.17613613h383.52272774c11.50568152 0 19.17613613-7.67045462 19.17613613-17.2585231 0-11.50568152-7.67045462-21.09375-19.17613613-21.09375z m0 210.9375H531.17613613c-11.50568152 0-19.17613613 7.67045462-19.17613613 19.17613697s7.67045462 19.17613613 19.17613613 19.17613613h383.52272774c11.50568152 0 19.17613613-7.67045462 19.17613613-19.17613613 0-9.58806848-7.67045462-19.17613613-19.17613613-19.17613697z m0 210.9375H531.17613613c-11.50568152 0-19.17613613 7.67045462-19.17613613 19.17613697s7.67045462 19.17613613 19.17613613 19.17613613h383.52272774c11.50568152 0 19.17613613-7.67045462 19.17613613-19.17613613s-9.58806848-19.17613613-19.17613613-19.17613697z" p-id="3820"></path></svg>
