<?xml version="1.0" standalone="no"?><!DOCTYPE svg PUBLIC "-//W3C//DTD SVG 1.1//EN" "http://www.w3.org/Graphics/SVG/1.1/DTD/svg11.dtd"><svg t="1553519567082" class="icon" style="" viewBox="0 0 1024 1024" version="1.1" xmlns="http://www.w3.org/2000/svg" p-id="7986" xmlns:xlink="http://www.w3.org/1999/xlink" width="200" height="200"><defs><style type="text/css"></style></defs><path d="M987.428571 329.142857l0 146.285714q0 14.857143-10.857143 25.714286t-25.714286 10.857143l-36.571429 0q-14.857143 0-25.714286-10.857143t-10.857143-25.714286l0-146.285714q0-60.571429-42.857143-103.428571t-103.428571-42.857143-103.428571 42.857143-42.857143 103.428571l0 109.714286 54.857143 0q22.857143 0 38.857143 16t16 38.857143l0 329.142857q0 22.857143-16 38.857143t-38.857143 16l-548.571429 0q-22.857143 0-38.857143-16t-16-38.857143l0-329.142857q0-22.857143 16-38.857143t38.857143-16l384 0 0-109.714286q0-105.714286 75.142857-180.857143t180.857143-75.142857 180.857143 75.142857 75.142857 180.857143z" p-id="7987"></path></svg>